<svg version="1.2" xmlns="http://www.w3.org/2000/svg" viewBox="0 0 128 128" width="128" height="128">
	<title>csharp-original</title>
	<style>
		.s0 { fill: #6100ff } 
		.s1 { fill: #4e1aa2 } 
		.s2 { fill: #212529 } 
	</style>
	<path class="s0" d="m115.4 30.7l-48.3-27.8c-0.8-0.5-1.9-0.7-3.1-0.7-1.2 0-2.3 0.3-3.1 0.7l-48 27.9c-1.7 1-2.9 3.5-2.9 5.4v55.7c0 1.1 0.2 2.4 1 3.5l106.8-62c-0.6-1.2-1.5-2.1-2.4-2.7z"/>
	<path class="s1" d="m10.7 95.3c0.5 0.8 1.2 1.5 1.9 1.9l48.2 27.9c0.8 0.5 1.9 0.7 3.1 0.7 1.2 0 2.3-0.3 3.1-0.7l48-27.9c1.7-1 2.9-3.5 2.9-5.4v-55.7c0-0.9-0.1-1.9-0.6-2.8z"/>
	<path class="s2" d="m85.3 76.1c-4.2 7.4-12.2 12.4-21.3 12.4-13.5 0-24.5-11-24.5-24.5 0-13.5 11-24.5 24.5-24.5 9.1 0 17.1 5 21.3 12.5l13-7.5c-6.8-11.9-19.6-20-34.3-20-21.8 0-39.5 17.7-39.5 39.5 0 21.8 17.7 39.5 39.5 39.5 14.6 0 27.4-8 34.2-19.8zm11.7-9.9l0.9-4.3h-4.2v-4.7h5.1l1.2-6.2h4.9l-1.2 6.1h3.8l1.2-6.1h4.8l-1.2 6.1h2.4v4.7h-3.3l-0.9 4.3h4.2v4.7h-5.1l-1.2 6h-4.9l1.2-6h-3.8l-1.2 6h-4.8l1.2-6h-2.4v-4.7h3.3zm4.8 0h3.8l0.9-4.3h-3.8z"/>
</svg>