<svg version="1.2" xmlns="http://www.w3.org/2000/svg" viewBox="0 0 128 128" width="128" height="128">
	<title>css3-original</title>
	<style>
		.s0 { fill: #380a82 } 
		.s1 { fill: #8e55ea } 
		.s2 { fill: #212529 } 
	</style>
	<path class="s0" d="m18.8 114.1l-10-112.7h110.4l-10 112.7-45.3 12.5z"/>
	<path class="s1" d="m64 117.1l36.6-10.2 8.6-96.3h-45.2z"/>
	<path class="s2" d="m64 51.4h18.3l1.3-14.1h-19.6v-13.9h34.7l-0.3 3.7-3.4 38.2h-31z"/>
	<path class="s2" d="m64.1 87.3l-0.1 0.1-15.4-4.2-1-11h-13.8l1.9 21.7 28.3 7.9 0.1-0.1z"/>
	<path class="s2" d="m81.1 64.7l-1.6 18.5-15.5 4.2v14.4l28.4-7.9 0.2-2.3 2.4-26.9z"/>
	<path class="s2" d="m64 23.4v13.9h-33.4l-0.2-3.1-0.7-7.1-0.3-3.7zm0 28v13.9h-15.3l-0.2-3.1-0.7-7.1-0.3-3.7z"/>
</svg>