<svg version="1.2" xmlns="http://www.w3.org/2000/svg" viewBox="0 0 128 128" width="128" height="128">
	<title>dart-original</title>
	<style>
		.s0 { fill: #6100ff } 
		.s1 { fill: #7018ff } 
		.s2 { fill: #4e1aa2 } 
		.s3 { fill: #8e55ea } 
		.s4 { fill: #380a82 } 
	</style>
	<path class="s0" d="m35.2 34.9l-8.3-8.3v59.7l0.1 2.8c0 1.3 0.2 2.8 0.7 4.3l65.6 23.1 16.3-7.2z"/>
	<path class="s1" d="m109.6 109.3l-16.3 7.2-65.4-23.1c1.3 4.8 4 10.1 7 13.2l21.3 21.2 47.6 0.1z"/>
	<path class="s2" d="m1.7 65.1c-2.1 2.2-1 6.9 2.3 10.4l14.7 14.8 9.2 3.3c-0.3-1.5-0.7-3-0.7-4.3l-0.1-2.8-0.2-59.8m82.7 82.6l7.2-16.4-23-65.6c-1.5-0.3-3-0.6-4.3-0.7l-2.9-0.1-59.6 0.1"/>
	<path class="s3" d="m93.6 27.3q0.3 0 0 0 0.3 0 0 0zm16 82l17.7-5.8v-48.7l-20.4-20.5c-3-3-8.3-5.8-13.2-7l23.1 65.6"/>
	<path class="s4" d="m90.5 18.2l-14.8-14.7c-3.4-3.4-8-4.4-10.4-2.3l-38.4 25.4h59.5l2.9 0.1c1.3 0 2.8 0.2 4.3 0.7z"/>
</svg>