<svg version="1.2" xmlns="http://www.w3.org/2000/svg" viewBox="0 0 128 128" width="128" height="128">
	<title>docker-original</title>
	<style>
		.s0 { fill: #380a82 } 
		.s1 { fill: #8e55ea } 
		.s2 { fill: #a97bf3 } 
		.s3 { fill: #4e1aa2 } 
		.s4 { fill: #6100ff } 
		.s5 { fill: #c7a5fd } 
	</style>
	<path fill-rule="evenodd" class="s0" d="m73.8 50.8h11.3v11.5h5.7c2.6 0 5.3-0.5 7.8-1.3 1.2-0.4 2.6-1 3.8-1.7-1.6-2.1-2.4-4.7-2.6-7.3-0.3-3.5 0.4-8.1 2.8-10.8l1.2-1.4 1.4 1.1c3.6 2.9 6.5 6.8 7.1 11.4 4.3-1.3 9.3-1 13.1 1.2l1.5 0.9-0.8 1.6c-3.2 6.2-9.9 8.2-16.4 7.8-9.8 24.3-31 35.8-56.8 35.8-13.3 0-25.5-5-32.5-16.8l-0.1-0.2-1-2.1c-2.4-5.2-3.1-10.9-2.6-16.6l0.2-1.7h9.6v-11.4h11.3v-11.2h22.5v-11.3h13.5z"/>
	<path class="s1" d="m110.4 55.1c0.8-5.9-3.6-10.5-6.4-12.7-3.1 3.6-3.6 13.2 1.3 17.2-2.8 2.4-8.5 4.7-14.5 4.7h-72.2c-0.6 6.2 0.5 11.9 3 16.8l0.8 1.5c0.5 0.9 1.1 1.7 1.7 2.6 3 0.2 5.7 0.3 8.2 0.2 4.9-0.1 8.9-0.7 12-1.7 0.5-0.2 0.9 0.1 1.1 0.5 0.2 0.5-0.1 0.9-0.5 1.1-0.4 0.1-0.8 0.3-1.3 0.4-2.4 0.7-5 1.1-8.3 1.3h-0.6c-1.3 0.1-2.7 0.1-4.2 0.1-1.6 0-3.1 0-4.9-0.1 6 6.8 15.4 10.8 27.2 10.8 25 0 46.2-11.1 55.5-35.9 6.7 0.7 13.1-1 16-6.7-4.5-2.7-10.5-1.8-13.9-0.1z"/>
	<path class="s2" d="m110.4 55.1c0.8-5.9-3.6-10.5-6.4-12.7-3.1 3.6-3.6 13.2 1.3 17.2-2.8 2.4-8.5 4.7-14.5 4.7h-68c-0.3 9.5 3.2 16.7 9.5 21 4.9-0.1 8.9-0.7 12-1.7 0.5-0.2 0.9 0.1 1.1 0.5 0.2 0.5-0.1 0.9-0.5 1.1-0.4 0.1-0.8 0.3-1.3 0.4-2.4 0.7-5.2 1.2-8.5 1.4l-0.1-0.1c8.5 4.4 20.8 4.3 35-1.1 15.8-6.1 30.6-17.7 40.9-30.9-0.2 0.1-0.4 0.1-0.5 0.2z"/>
	<path class="s3" d="m18.7 71.8c0.4 3.3 1.4 6.4 2.9 9.3l0.8 1.5c0.5 0.9 1.1 1.7 1.7 2.6 3 0.2 5.7 0.3 8.2 0.2 4.9-0.1 8.9-0.7 12-1.7 0.5-0.2 0.9 0.1 1.1 0.5 0.2 0.5-0.1 0.9-0.5 1.1-0.4 0.1-0.8 0.3-1.3 0.4-2.4 0.7-5.2 1.2-8.5 1.4h-0.4c-1.3 0.1-2.7 0.1-4.1 0.1-1.6 0-3.2 0-4.9-0.1 6 6.8 15.5 10.8 27.3 10.8 21.4 0 40-8.1 50.8-26h-85.1z"/>
	<path class="s4" d="m23.5 71.8c1.3 5.8 4.3 10.4 8.8 13.5 4.9-0.1 8.9-0.7 12-1.7 0.5-0.2 0.9 0.1 1.1 0.5 0.2 0.5-0.1 0.9-0.5 1.1-0.4 0.1-0.8 0.3-1.3 0.4-2.4 0.7-5.2 1.2-8.6 1.4 8.5 4.4 20.8 4.3 34.9-1.1 8.5-3.3 16.8-8.2 24.2-14.1z"/>
	<path fill-rule="evenodd" class="s2" d="m28.4 52.7h9.8v9.8h-9.8zm0.8 8.9h0.8v-8.1h-0.8zm1.4 0h0.8v-8.1h-0.8zm1.5 0h0.8v-8.1h-0.8zm1.5 0h0.8v-8.1h-0.8zm1.5 0h0.8v-8.1h-0.8zm1.5 0h0.8v-8.1h-0.8zm3-20.1h9.8v9.8h-9.8zm0.9 8.9h0.8v-8.1h-0.8zm1.4 0h0.8v-8.1h-0.8zm1.5 0h0.8v-8.1h-0.8zm1.5 0h0.8v-8.1h-0.8zm1.4 0h0.8v-8.1h-0.8zm1.5 0h0.8v-8.1h-0.8z"/>
	<path fill-rule="evenodd" class="s2" d="m39.6 52.7h9.8v9.8h-9.8zm0.9 8.9h0.8v-8.1h-0.8zm1.4 0h0.8v-8.1h-0.8zm1.5 0h0.8v-8.1h-0.8zm1.5 0h0.8v-8.1h-0.8zm1.4 0h0.8v-8.1h-0.8zm1.5 0h0.8v-8.1h-0.8z"/>
	<path fill-rule="evenodd" class="s2" d="m50.9 52.7h9.8v9.8h-9.8zm0.8 8.9h0.8v-8.1h-0.8zm1.5 0h0.8v-8.1h-0.8zm1.5 0h0.8v-8.1h-0.8zm1.4 0h0.8v-8.1h-0.8zm1.5 0h0.8v-8.1h-0.8zm1.5 0h0.8v-8.1h-0.8z"/>
	<path fill-rule="evenodd" class="s2" d="m50.9 41.5h9.8v9.8h-9.8zm0.8 8.9h0.8v-8.1h-0.8zm1.5 0h0.8v-8.1h-0.8zm1.5 0h0.8v-8.1h-0.8zm1.4 0h0.8v-8.1h-0.8zm1.5 0h0.8v-8.1h-0.8zm1.5 0h0.8v-8.1h-0.8zm3.1 2.3h9.8v9.8h-9.8zm0.8 8.9h0.8v-8.1h-0.8zm1.5 0h0.8v-8.1h-0.8zm1.4 0h0.8v-8.1h-0.8zm1.5 0h0.8v-8.1h-0.8zm1.5 0h0.8v-8.1h-0.8zm1.5 0h0.8v-8.1h-0.8z"/>
	<path fill-rule="evenodd" class="s2" d="m62.2 41.5h9.8v9.8h-9.8zm0.8 8.9h0.8v-8.1h-0.8zm1.5 0h0.8v-8.1h-0.8zm1.4 0h0.8v-8.1h-0.8zm1.5 0h0.8v-8.1h-0.8zm1.5 0h0.8v-8.1h-0.8zm1.5 0h0.8v-8.1h-0.8z"/>
	<path fill-rule="evenodd" class="s2" d="m62.2 30.2h9.8v9.8h-9.8zm0.8 8.9h0.8v-8.1h-0.8zm1.5 0h0.8v-8.1h-0.8zm1.4 0h0.8v-8.1h-0.8zm1.5 0h0.8v-8.1h-0.8zm1.5 0h0.8v-8.1h-0.8zm1.5 0h0.8v-8.1h-0.8z"/>
	<path fill-rule="evenodd" class="s2" d="m73.5 52.7h9.8v9.8h-9.8zm0.8 8.9h0.8v-8.1h-0.8zm1.4 0h0.8v-8.1h-0.8zm1.5 0h0.8v-8.1h-0.8zm1.5 0h0.8v-8.1h-0.8zm1.5 0h0.8v-8.1h-0.8zm1.5 0h0.8v-8.1h-0.8z"/>
	<path fill-rule="evenodd" class="s2" d="m48.8 78.3c1.5 0 2.7 1.2 2.7 2.7 0 1.5-1.2 2.7-2.7 2.7-1.5 0-2.7-1.2-2.7-2.7 0-1.5 1.2-2.7 2.7-2.7z"/>
	<path fill-rule="evenodd" class="s0" d="m46.9 81c0 1 0.8 1.9 1.9 1.9 1 0 1.9-0.8 1.9-1.9 0-0.2 0-0.5-0.1-0.7-0.1 0.2-0.4 0.4-0.7 0.4-0.4 0-0.8-0.4-0.8-0.8 0-0.3 0.2-0.6 0.4-0.7-0.2-0.1-0.5-0.1-0.7-0.1-1.1 0-1.9 0.9-1.9 1.9zm-45.8-8.2h125.4c-2.7-0.7-8.6-1.6-7.7-5.2-5 5.7-16.9 4-20 1.2-3.4 4.9-23 3-24.3-0.8-4.2 5-17.3 5-21.5 0-1.4 3.8-21 5.7-24.3 0.8-3 2.8-15 4.5-20-1.2 1.1 3.5-4.9 4.5-7.6 5.2z"/>
	<path class="s2" d="m56 97.8c-6.7-3.2-10.3-7.5-12.4-12.2-2.5 0.7-5.5 1.2-8.9 1.4-1.3 0.1-2.7 0.1-4.1 0.1-1.7 0-3.4 0-5.2-0.1 6 6 13.6 10.7 27.5 10.8z"/>
	<path class="s5" d="m46.1 89.9c-0.9-1.3-1.8-2.8-2.5-4.3-2.5 0.7-5.5 1.2-8.9 1.4 2.3 1.2 5.7 2.4 11.4 2.9z"/>
</svg>