<svg version="1.2" xmlns="http://www.w3.org/2000/svg" viewBox="0 0 128 128" width="128" height="128">
	<title>dot-net-original</title>
	<defs>
		<linearGradient id="g1" x2="1" gradientUnits="userSpaceOnUse" gradientTransform="matrix(0,58.546,-32.829,0,56.497,40.304)">
			<stop offset="0" stop-color="#4e1aa2"/>
			<stop offset=".35" stop-color="#8e55ea"/>
			<stop offset=".361" stop-color="#8e55ea"/>
			<stop offset=".83" stop-color="#7018ff"/>
			<stop offset=".846" stop-color="#7018ff"/>
			<stop offset=".85" stop-color="#7018ff"/>
			<stop offset="1" stop-color="#380a82"/>
		</linearGradient>
		<linearGradient id="g2" x2="1" gradientUnits="userSpaceOnUse" gradientTransform="matrix(0,59.885,-34.37,0,58.701,38.895)">
			<stop offset="0" stop-color="#7018ff"/>
			<stop offset=".36" stop-color="#7018ff"/>
			<stop offset=".368" stop-color="#7018ff"/>
			<stop offset=".771" stop-color="#4e1aa2"/>
			<stop offset=".846" stop-color="#3e0e8b"/>
			<stop offset=".874" stop-color="#380a82"/>
			<stop offset="1" stop-color="#8e55ea"/>
		</linearGradient>
		<linearGradient id="g3" x2="1" gradientUnits="userSpaceOnUse" gradientTransform="matrix(0,-47.649,25.631,0,70.552,85.738)">
			<stop offset="0" stop-color="#4e1aa2" stop-opacity="1"/>
			<stop offset=".5" stop-color="#8e55ea" stop-opacity="1"/>
			<stop offset="1" stop-color="#a97bf3" stop-opacity=".42"/>
		</linearGradient>
		<linearGradient id="g4" x2="1" gradientUnits="userSpaceOnUse" gradientTransform="matrix(0,62.335,-32.4,0,67.331,32.639)">
			<stop offset="0" stop-color="#6100ff"/>
			<stop offset=".4" stop-color="#4e1aa2"/>
			<stop offset=".846" stop-color="#6100fe"/>
			<stop offset=".85" stop-color="#6100ff"/>
			<stop offset="1" stop-color="#4e1aa2"/>
		</linearGradient>
		<linearGradient id="g5" x2="1" gradientUnits="userSpaceOnUse" gradientTransform="matrix(0,66.285,-42.003,0,62.739,33.126)">
			<stop offset="0" stop-color="#4e1aa2"/>
			<stop offset=".387" stop-color="#6100ff"/>
			<stop offset=".39" stop-color="#4e1aa2"/>
			<stop offset=".78" stop-color="#4e1aa2"/>
			<stop offset=".787" stop-color="#4e1aa2"/>
			<stop offset="1" stop-color="#6100ff"/>
		</linearGradient>
		<linearGradient id="g6" x2="1" gradientUnits="userSpaceOnUse" gradientTransform="matrix(9.356,0,0,14.899,35.428,52.696)">
			<stop offset="0" stop-color="#7018ff" stop-opacity=".7"/>
			<stop offset="1" stop-color="#4e1aa2" stop-opacity="1"/>
		</linearGradient>
		<linearGradient id="g7" x2="1" gradientUnits="userSpaceOnUse" gradientTransform="matrix(0,-46.417,37.228,0,106.279,84.5)">
			<stop offset="0" stop-color="#380a82" stop-opacity="1"/>
			<stop offset=".6" stop-color="#4e1aa2" stop-opacity=".55"/>
			<stop offset="1" stop-color="#6100ff" stop-opacity=".24"/>
		</linearGradient>
		<linearGradient id="g8" x2="1" gradientUnits="userSpaceOnUse" gradientTransform="matrix(34.707,0,0,47.783,2.224,63.797)">
			<stop offset="0" stop-color="#7018ff" stop-opacity=".25"/>
			<stop offset="1" stop-color="#380a82" stop-opacity="1"/>
		</linearGradient>
		<linearGradient id="g9" x2="1" gradientUnits="userSpaceOnUse" gradientTransform="matrix(0,-47.527,31.581,0,22.132,85.697)">
			<stop offset="0" stop-color="#7018ff"/>
			<stop offset="1" stop-color="#6100ff"/>
		</linearGradient>
		<linearGradient id="g10" x2="1" gradientUnits="userSpaceOnUse" gradientTransform="matrix(0,-46.318,36.973,0,24.694,85.95)">
			<stop offset="0" stop-color="#6100ff" stop-opacity="1"/>
			<stop offset="1" stop-color="#7018ff" stop-opacity=".55"/>
		</linearGradient>
		<linearGradient id="g11" x2="1" gradientUnits="userSpaceOnUse" gradientTransform="matrix(0,-39.139,25.346,0,27.599,88.372)">
			<stop offset="0" stop-color="#4e1aa2"/>
			<stop offset=".5" stop-color="#8e55ea"/>
			<stop offset=".526" stop-color="#7018ff"/>
			<stop offset=".918" stop-color="#6100ff"/>
			<stop offset=".92" stop-color="#6100ff"/>
			<stop offset="1" stop-color="#6100ff"/>
		</linearGradient>
		<linearGradient id="g12" x2="1" gradientUnits="userSpaceOnUse" gradientTransform="matrix(-7.464,-42.329,41.477,-7.314,28.773,85.781)">
			<stop offset="0" stop-color="#4e1aa2"/>
			<stop offset="1" stop-color="#7018ff"/>
		</linearGradient>
		<linearGradient id="g13" x2="1" gradientUnits="userSpaceOnUse" gradientTransform="matrix(0,-22.121,12.667,0,98.013,61.769)">
			<stop offset="0" stop-color="#4e1aa2"/>
			<stop offset=".87" stop-color="#7018ff"/>
			<stop offset=".874" stop-color="#721bff"/>
			<stop offset="1" stop-color="#a97bf3"/>
		</linearGradient>
		<linearGradient id="g14" x2="1" gradientUnits="userSpaceOnUse" gradientTransform="matrix(-8.994,51.01,-20.643,-3.64,108.796,37.69)">
			<stop offset="0" stop-color="#a97bf3" stop-opacity=".33"/>
			<stop offset=".95" stop-color="#6100ff" stop-opacity=".992"/>
			<stop offset=".962" stop-color="#5c06e9" stop-opacity="1"/>
			<stop offset="1" stop-color="#4e1aa2" stop-opacity="1"/>
		</linearGradient>
		<linearGradient id="g15" x2="1" gradientUnits="userSpaceOnUse" gradientTransform="matrix(0,48.259,-34.568,0,100.306,39.511)">
			<stop offset="0" stop-color="#4e1aa2"/>
			<stop offset=".5" stop-color="#7018ff"/>
			<stop offset="1" stop-color="#4e1aa2"/>
		</linearGradient>
		<linearGradient id="g16" x2="1" gradientUnits="userSpaceOnUse" gradientTransform="matrix(56.114,23.274,-9.653,23.274,35.038,34.801)">
			<stop offset="0" stop-color="#a97bf3"/>
			<stop offset=".7" stop-color="#7018ff"/>
			<stop offset=".703" stop-color="#7018fe"/>
			<stop offset="1" stop-color="#4e1aa2"/>
		</linearGradient>
		<linearGradient id="g17" x2="1" gradientUnits="userSpaceOnUse" gradientTransform="matrix(44.32,-20.09,5.888,12.99,50.292,47.974)">
			<stop offset="0" stop-color="#8e55ea" stop-opacity="1"/>
			<stop offset="1" stop-color="#8e55ea" stop-opacity="0"/>
		</linearGradient>
		<linearGradient id="g18" x2="1" gradientUnits="userSpaceOnUse" gradientTransform="matrix(0,47.202,-30.466,0,93.722,42.135)">
			<stop offset="0" stop-color="#8e55ea" stop-opacity="1"/>
			<stop offset="1" stop-color="#8e55ea" stop-opacity="0"/>
		</linearGradient>
	</defs>
	<style>
		.s0 { fill: url(#g1) } 
		.s1 { fill: url(#g2) } 
		.s2 { fill: #4e1aa2 } 
		.s3 { fill: url(#g3) } 
		.s4 { fill: #380a82 } 
		.s5 { fill: #6100ff } 
		.s6 { fill: url(#g4) } 
		.s7 { fill: url(#g5) } 
		.s8 { fill: url(#g6) } 
		.s9 { fill: url(#g7) } 
		.s10 { fill: url(#g8) } 
		.s11 { fill: #7018ff } 
		.s12 { fill: url(#g9) } 
		.s13 { fill: url(#g10) } 
		.s14 { fill: url(#g11) } 
		.s15 { fill: url(#g12) } 
		.s16 { fill: url(#g13) } 
		.s17 { fill: url(#g14) } 
		.s18 { fill: #a97bf3 } 
		.s19 { fill: url(#g15) } 
		.s20 { fill: url(#g16) } 
		.s21 { fill: url(#g17) } 
		.s22 { fill: url(#g18) } 
	</style>
	<path class="s0" d="m45.3 49.6c4.4 13.5 6.1 37.6 19 37.6q1.5 0 3-0.3c-11.8-2.8-13.2-26.6-20.3-38.9q-0.2 0.2-0.5 0.4-0.2 0.2-0.4 0.4-0.2 0.2-0.4 0.4-0.2 0.2-0.4 0.4z"/>
	<path class="s1" d="m47 48c7.1 12.3 8.5 36.1 20.3 38.9q0.3-0.1 0.7-0.2 0.3-0.1 0.7-0.1 0.3-0.1 0.7-0.2 0.3-0.2 0.6-0.3c-10.5-5.1-13.4-28.3-21.5-39.4q-0.8 0.6-1.5 1.3z"/>
	<path class="s2" d="m57.3 40.6q-1.5 0-3 0.3-3.9 0.8-7.9 3.3 1.1 1.1 2.1 2.5c2.7-2.3 5.4-4 8.1-5q0.3-0.1 0.7-0.2 0.4-0.1 0.8-0.2 0.3-0.1 0.7-0.2 0.4-0.1 0.8-0.2-0.3-0.1-0.6-0.1-0.3-0.1-0.5-0.1-0.3 0-0.6-0.1-0.3 0-0.6 0z"/>
	<path class="s3" d="m78.3 81.4q0.4-0.4 0.8-0.7 0.4-0.4 0.8-0.7 0.4-0.4 0.8-0.7 0.4-0.4 0.8-0.8c-4.5-13.4-6.1-37.9-19.1-37.9q-1.4 0-2.8 0.3c11.9 2.9 13.4 28.7 18.7 40.5z"/>
	<path class="s4" d="m59.6 40.9q-0.3-0.1-0.6-0.1-0.3-0.1-0.5-0.1-0.3 0-0.6-0.1-0.3 0-0.6 0h5.1q-1.4 0-2.8 0.3z"/>
	<path class="s5" d="m78 84.2q-0.2-0.2-0.3-0.4-0.2-0.2-0.4-0.4-0.2-0.1-0.4-0.4-0.2-0.2-0.3-0.4-3.3 2.4-6.6 3.5 1.2 0.6 2.5 0.9 1 0.2 2.1 0.2c2.4 0 4.3-0.3 5.9-1.1q-1.3-0.7-2.5-1.9z"/>
	<path class="s6" d="m56.6 41.7c10.6 5.6 11.5 30.7 20 40.9q0.8-0.6 1.7-1.2c-5.3-11.8-6.8-37.6-18.7-40.5q-1.5 0.3-3 0.8z"/>
	<path class="s7" d="m48.5 46.7c8.1 11.1 11 34.3 21.5 39.4q3.3-1.1 6.6-3.5c-8.5-10.2-9.4-35.3-20-40.9-2.7 1-5.4 2.7-8.1 5z"/>
	<path class="s8" d="m40.1 49.2c-1.3 2.9-2.6 6.7-4.2 11.7 3.2-4.5 6.3-8.3 9.4-11.3q-0.2-0.5-0.3-1-0.2-0.4-0.4-0.9-0.1-0.4-0.3-0.9-0.2-0.4-0.4-0.8-0.5 0.3-1 0.7-0.5 0.4-1 0.8-0.4 0.5-0.9 0.9-0.5 0.4-0.9 0.8z"/>
	<path class="s2" d="m45 45.1q-0.5 0.4-1.1 0.9 0.7 1.6 1.4 3.6 0.2-0.2 0.4-0.4 0.2-0.2 0.4-0.4 0.2-0.2 0.4-0.4 0.3-0.2 0.5-0.4-0.2-0.4-0.5-0.8-0.2-0.3-0.4-0.7-0.3-0.4-0.5-0.7-0.3-0.3-0.6-0.7z"/>
	<path class="s2" d="m46.4 44.2q-0.7 0.5-1.4 0.9 1.1 1.3 2 2.9 0.7-0.7 1.5-1.3-1-1.4-2.1-2.5z"/>
	<path class="s9" d="m118.8 39.6c-6 23.1-18.6 41.7-29.1 46.4l-0.6 0.3h-0.2l-0.1 0.1-0.2 0.1h-0.2l-0.1 0.1h-0.1-0.1l-0.2 0.1h-0.1l-0.2 0.1h-0.1-0.2l-0.2 0.1q0.7 0.2 1.5 0.2c10 0 20.1-17.8 36.7-47.5h-6.6z"/>
	<path class="s10" d="m33.8 41.6v-0.1h0.2l0.1-0.1h0.1l0.4-0.2h0.1 0.1 0.1l0.2-0.1 0.6-0.2h0.1 0.1 0.1l0.2-0.1h0.3 0.1 0.2v-0.1h0.2 0.1 0.3q-0.1 0-0.2-0.1-0.2 0-0.3 0-0.1 0-0.3 0-0.1 0-0.2 0c-11.3 0-26.7 20.8-33.7 47.8h1.4q0.7-1.4 1.5-2.8 0.8-1.4 1.5-2.8 0.8-1.4 1.5-2.8 0.8-1.4 1.5-2.9c4.9-19.1 14.8-32.1 23.7-35.5z"/>
	<path class="s5" d="m40.1 49.2q0.4-0.4 0.9-0.8 0.5-0.4 1-0.9 0.4-0.4 0.9-0.8 0.5-0.4 1-0.7-0.1-0.3-0.2-0.5-0.1-0.2-0.2-0.4-0.1-0.3-0.3-0.5-0.1-0.2-0.2-0.4c-1 1.2-2 2.9-2.9 5z"/>
	<path class="s11" d="m41 41.7c0.7 0.6 1.4 1.5 2 2.5q0.3-0.4 0.6-0.7-0.3-0.2-0.6-0.5-0.4-0.3-0.7-0.5-0.4-0.2-0.7-0.5-0.4-0.2-0.7-0.4l0.1 0.1z"/>
	<path class="s12" d="m10.1 77.1c10.3-19.7 15.1-32.2 23.7-35.5-8.9 3.4-18.8 16.4-23.7 35.5z"/>
	<path class="s5" d="m43.6 43.5q-0.3 0.3-0.6 0.7 0.5 0.8 0.9 1.8 0.6-0.5 1.1-0.9-0.1-0.2-0.3-0.4-0.2-0.2-0.4-0.4-0.2-0.2-0.3-0.4-0.2-0.2-0.4-0.4z"/>
	<path class="s13" d="m14.8 88.3h-0.2l-0.2 0.1h-0.4c10.3-0.3 15-5.5 17.4-13 1.8-5.7 3.2-10.5 4.5-14.6-4.3 6.2-8.7 13.4-13 21.6-2.2 3.9-5.4 5.6-8.1 5.9z"/>
	<path class="s14" d="m14.8 88.3c2.7-0.3 5.9-2 8.1-5.9 4.3-8.2 8.7-15.4 13-21.5 1.6-5 2.9-8.8 4.2-11.7-8.7 8.3-17.3 21.9-25.3 39.1z"/>
	<path class="s2" d="m10.1 77.1q-0.7 1.5-1.5 2.9-0.7 1.4-1.5 2.8-0.7 1.4-1.5 2.8-0.8 1.4-1.5 2.8h3.9q0.2-1.4 0.4-2.8 0.2-1.5 0.5-2.9 0.2-1.4 0.6-2.8 0.3-1.4 0.6-2.8z"/>
	<path class="s15" d="m37.1 40.7h-0.1-0.2v0.1h-0.2-0.1l-0.3 0.1h-0.2-0.1-0.1l-0.1 0.1-0.6 0.1-0.2 0.1h-0.1-0.1l-0.1 0.1-0.4 0.1-0.1 0.1h-0.1-0.2v0.1c-8.6 3.3-13.4 15.8-23.7 35.5q-0.3 1.4-0.6 2.8-0.3 1.4-0.6 2.8-0.3 1.5-0.5 2.9-0.2 1.4-0.4 2.8h0.5 3.8 1.7 0.4 0.2l0.2-0.1c8-17.2 16.7-30.8 25.3-39 0.9-2.2 1.9-3.8 2.9-5.1-0.6-1-1.3-1.8-2-2.5h-0.1l-0.1-0.1-0.2-0.1h-0.1l-0.1-0.1-0.2-0.1h-0.1l-0.2-0.1h-0.1l-0.2-0.1h-0.3l-0.1-0.1h-0.2-0.1q0-0.1-0.1-0.1-0.1 0-0.1 0-0.1 0-0.2 0-0.1-0.1-0.1-0.1h-0.1-0.2-0.1l-0.3-0.1h-0.3-0.3"/>
	<path class="s16" d="m95.3 52.4c-2 6.3-3.6 11.5-4.9 15.8 5.4-7.4 10.7-16.8 15.8-27.6-6 1.9-9.1 6.1-10.9 11.8z"/>
	<path class="s17" d="m90.5 85.6q-0.4 0.2-0.8 0.4c10.5-4.7 23.1-23.3 29.1-46.4h-1.3c-13.8 24.6-18.2 41.1-27 46z"/>
	<path class="s18" d="m83.7 83.6c2.3-2.8 4.1-7.6 6.7-15.4-3 4-5.9 7.5-8.9 10.3 0.6 2 1.4 3.7 2.2 5.1z"/>
	<path class="s2" d="m83.7 83.6q-1.2 1.4-2.6 2.2-0.3 0.1-0.6 0.3 0.4 0.2 0.8 0.4 0.4 0.1 0.8 0.2 0.4 0.2 0.8 0.3 0.4 0.1 0.8 0.1h0.6l0.3 0.1h0.8l0.1-0.1h0.2 0.1 0.2 0.1 0.2 0.1l0.2-0.1 0.5-0.1c-1.3-0.5-2.5-1.7-3.4-3.3"/>
	<path class="s2" d="m64.3 87.2q1.5 0 3-0.3 0.3-0.1 0.7-0.2 0.3-0.1 0.7-0.1 0.3-0.1 0.7-0.2 0.3-0.2 0.6-0.3 1.2 0.6 2.5 0.9 1 0.2 2.1 0.2c0 0-10.3 0-10.3 0zm10.3 0c2.4 0 4.3-0.3 5.9-1.1q0.4 0.2 0.8 0.4 0.4 0.1 0.8 0.2 0.4 0.2 0.8 0.3 0.4 0.1 0.8 0.1h0.6l0.3 0.1h0.3z"/>
	<path class="s11" d="m84.9 87.2h0.5l0.1-0.1h0.2 0.1 0.2 0.1 0.2l0.1-0.1h0.2l0.5-0.1q0.7 0.3 1.5 0.3h-3.7z"/>
	<path class="s2" d="m81.5 78.5q-0.4 0.4-0.8 0.8-0.4 0.3-0.8 0.7-0.4 0.3-0.8 0.7-0.4 0.3-0.8 0.7-0.2 0.1-0.4 0.3-0.3 0.2-0.5 0.3-0.2 0.2-0.4 0.3-0.2 0.2-0.4 0.3 0.7 0.9 1.4 1.6 1.2 1.1 2.5 1.9 0.4-0.2 0.7-0.3 1.3-0.8 2.5-2.2c-0.8-1.4-1.5-3.1-2.2-5.1z"/>
	<path class="s19" d="m113.7 39.6h-6.1-1l-0.5 1c-5 10.8-10.3 20.2-15.7 27.6-2.6 7.8-4.5 12.5-6.7 15.3 0.9 1.7 2.1 2.9 3.4 3.4h0.1 0.1v-0.1h0.2 0.1l0.2-0.1 0.3-0.1h0.1l0.1-0.1h0.1 0.1l0.3-0.1 0.1-0.1h0.1 0.1l0.6-0.3q0.4-0.2 0.8-0.4c8.8-4.9 13.2-21.4 27-46h-3.8z"/>
	<path class="s5" d="m37.4 40.7h0.1 0.2 0.3l0.1 0.1h0.2 0.1l0.5 0.1 0.1 0.1h0.2 0.1l0.2 0.1h0.1l0.2 0.1h0.1l0.2 0.1 0.1 0.1h0.2l0.1 0.1 0.1 0.1h0.1l0.2 0.1q1.4 0.7 2.7 1.9 0.4-0.5 0.9-0.9c-1.8-1.3-3.8-2-6.2-2q-0.4 0-0.9 0"/>
	<path class="s11" d="m43.6 43.5q0.7 0.8 1.4 1.6 0.7-0.4 1.4-0.9-0.2-0.2-0.5-0.4-0.2-0.2-0.4-0.4-0.2-0.2-0.5-0.4-0.2-0.2-0.5-0.3-0.5 0.4-0.9 0.8z"/>
	<g>
		<path class="s20" d="m37.2 40.7h0.8c2.4 0 4.4 0.7 6.3 2 1.9-1.5 4.2-2 7.5-2h-15.7z"/>
	</g>
	<g>
		<path class="s21" d="m51.8 40.7c-3.3 0-5.6 0.5-7.5 2q0.9 0.7 1.8 1.6c2.7-1.7 5.3-2.8 8-3.3q1.5-0.3 2.9-0.3h-5.2z"/>
	</g>
	<path class="s22" d="m90.4 68.2c1.3-4.3 2.9-9.5 4.9-15.8 1.8-5.7 4.9-9.9 10.8-11.8l0.5-0.9c-9.6 0.5-14.1 5.4-16.4 12.7-4 12.7-6.4 20.9-8.7 26.1 3-2.8 5.9-6.3 8.9-10.3z"/>
</svg>