<svg version="1.2" xmlns="http://www.w3.org/2000/svg" viewBox="0 0 128 128" width="128" height="128">
	<title>figma-original</title>
	<style>
		.s0 { fill: #380a82 } 
		.s1 { fill: #4e1aa2 } 
		.s2 { fill: #6100ff } 
		.s3 { fill: #8e55ea } 
		.s4 { fill: #a97bf3 } 
	</style>
	<path class="s0" d="m45.5 129c11.9 0 21.5-9.6 21.5-21.5v-21.5h-21.5c-11.9 0-21.5 9.6-21.5 21.5 0 11.9 9.6 21.5 21.5 21.5z"/>
	<path class="s1" d="m24 64.5c0-11.9 9.6-21.5 21.5-21.5h21.5v43h-21.5c-11.9 0-21.5-9.6-21.5-21.5z"/>
	<path class="s2" d="m24 21.5c0-11.9 9.6-21.5 21.5-21.5h21.5v43h-21.5c-11.9 0-21.5-9.6-21.5-21.5z"/>
	<path class="s3" d="m67 0h21.5c11.9 0 21.5 9.6 21.5 21.5 0 11.9-9.6 21.5-21.5 21.5h-21.5z"/>
	<path class="s4" d="m110 64.5c0 11.9-9.6 21.5-21.5 21.5-11.9 0-21.5-9.6-21.5-21.5 0-11.9 9.6-21.5 21.5-21.5 11.9 0 21.5 9.6 21.5 21.5z"/>
</svg>