<svg version="1.2" xmlns="http://www.w3.org/2000/svg" viewBox="0 0 128 128" width="128" height="128">
	<title>flask-original</title>
	<style>
		.s0 { fill: #6100ff } 
	</style>
	<path class="s0" d="m44.4 100.6c-4.2-3.3-8.7-6.5-11.8-11-6.5-7.9-11.5-17.1-14.9-26.7-2.1-6.3-2.8-13-5.4-19-2.8-4.4 0.5-9.2 5.2-10.6 2.2-0.4 5.9-2.4 1.4-1-4.1 3-4.4-2.7-0.3-3 2.9-0.4 3.9-2.7 2.9-4.8-3-2 7.4-4.2 2.2-7.2-5.5-5.9 7.6-7 4.4-0.3-0.8 5.1 9.2-1 6.9 5 2.3 2.9 8.8 0.6 8.6 4.7 3.4 0.2 4.6 3.1 7.8 3.3 3.3 1.5 9.4 2.7 10.5 6.4-3.3 2.6-11-5.4-11.3 1.9 1 10.7 0.7 21.7 4.6 31.9 1.9 6.1 6.4 11 10.4 15.8 3.9 4.7 9.1 8 14.5 10.8 4.7 2.2 9.7 3.6 14.9 4.6 2-1.6 5.7-7.5 8.9-5 0.2 2.8-6.4 5.8-0.3 5.5 3.6-1.1 6.1 2.8 9.1-0.7 2.7 3.2 11.3-2.1 9.3 4.5-2.6 1.7-6.4 0.7-9 3-4.4-2.1-7.8 2-12.6 1.4-5.3 1-10.7 1.4-16.1 1.4-8.9-0.7-17.9-1-26.3-4.1-4.8-1.4-9.4-4.1-13.6-6.8zm7.5 3.3c4.6 2 9.2 4.1 14.2 4.7 8.1 1.1 16.4 2.9 24.5 1.3-3.7-1.7-7.4 0.6-11.1-1.2-4.4 0.9-9-0.2-13.5-0.8-5-2.3-10.5-3.8-15.2-6.7-5.9-2.2 3 2.7 4.6 3.1 3.7 2.1-4-1-5.1-1.9-3.1-1.8-3.5-1.4-0.3 0.4 0.6 0.3 1.2 0.7 1.9 1.1zm-8.8-6.3c4.5 1.7 0-3.1-2.1-2.8-0.9-1.6-3.4-2.6-1.6-3.5-3.3 1.2-3.5-4.3-5-3.5-3.4-1.1-1.3-5-5.4-7.3-0.4-2.5-4.1-4.7-5.3-8.5-0.5-1.9-4.2-7.4-1.9-2.3 1.9 5 5.2 9.2 8.1 13.5 2.1 4 4.7 8.2 8.7 10.8 1.3 1.3 2.6 3.2 4.5 3.6zm23.3 2.8c3.5-2.1 2.4 5 6 0.6 3.6-2.6-3.1 3.3 1.3 0.5 3.3-2.2 8 1 11 2 2.2-0.1 4.3 1.9 6.5 0.7 4.3-1.1-8.3-1.7-5-3.7-3.9 1.1-6.8-1.4-8.7-3.9-4.4-1-9.5-3.2-11.7-7.1-0.9-1.5 1.3 0.2-0.8-2.2-2.6-2.4-3.9-5-5.7-7.9-2.1-1.1-2.4-4.5-2.6-0.1 0.1-2.7-2.5-4.6-3.2-3.8 0-2.7 2.8-1.3 0.9-3.3-0.5-2.7-1.8-5.6-2.2-8.7-0.7-1.5-0.1-4.7-2.2-1.3-0.8 3.6-0.3-4.4 0.9-1.7 1.6-2.7-0.5-2.4-0.6-2 1-2.3 0.6-5.5-0.3-4.3 0.5-2.4 0.9-8.8-0.8-7.6 1-2.5 1.9-11.5-2.5-8.1-1.8 0.1-4.8 0.7-6.3 1.4 4.6 2.5-0.5 0.9-2.3 0.5-0.3 2.3-2.1 1.3-4.4 1.4 3.7 0.4-1.8 3.7-3.9 2.4-2.7 1.3 2.4 4.6 0.1 5.6 0.2 1.5-4.2-0.5-3.9 3-2.6-1.2-0.3 4.1 1 2.3 4.5 1.3 3.2 4.1 3.3 6.7-0.8 1.5-3.7-3.6-0.7-3.4-2.3-3.8-2.6-1.4-4.5 0.4-0.5 0.1 5 2.5 1.5 3.7 3.1 0.5 3.1 3.1 3.8 4.8 1.8 1.9 1.4-2.1 3.6 0.2-1.4-2-7.3-5.7-2.6-4.5 0-2.1-0.8-3.7 0.6-3.7 1.5-2.6-1.5 6.5 1.8 3.1 0.9-0.4 1.1-2.6 2.7 0.3 2.3 2.3 0.8 3.9-2.5 1.8 0.6 2 4.5 2.7 3.7 5.9 0.8 2.7 1.9 1.7 2.8 1.6 0.7 2.6 1.1 0.7 1.2-0.6 3.3 0.7 2.5 2.7 3.6 4.1 2.3 1-3.3-7.1 0.6-2.5 4.2 3.8 1.6 5.3-2.1 4.7 2.3-0.1 3.1 3.2 6 3.1 2.7 1.3 4.6 6.2-0.1 4.2-1.6-1.5-7.3-3.3-2.6-0.5 4.3 2 7.7 3.2 11.8 5.7 3 2.1 4.3 4.5 5.4 5-2.5 1.2-7.5-1-3.8-1.6-2.3-0.5-4.9-1.6-2.7 1.3 1.9 1.5 6.7 1.4 7.6 1.6-0.7 1.6-2 1.7 0 1.8-2.2 1.2 0.7 1.4 0.9 2.1zm-17.8-0.8c1-0.4-1.5-0.5 0 0zm2.4 0.9c-0.2-1.2-1.1 0.7 0 0zm3.1 1.3c1.4-1.4-2.3-0.9 0 0zm5.2 2.9c0.9-1.3-2.8-0.5 0 0zm-10.1-7c2.3-1.4-2.9 0 0 0zm2.3 1.1c0-0.7-0.8 0.4 0 0zm11.5 7.2c1.8 1.1 10.7 2.5 5.1 0.5-0.9 0.2-10.3-2.7-5.1-0.5zm-18.2-14.2c-0.2-0.7-2.8-0.8 0 0zm5.3 3.1c1.4-0.9-2.8-0.7 0 0zm4.5 2.8c2-0.8-3.2-0.8 0 0zm-11.9-8.2c2.1 1.6 8.7 0.2 3.2-1-2.4-1.3-7.9-2.2-4.2 0.8zm15 9.1c0.9-1.5-3.7-0.8 0 0zm-4.5-3.6c5.2 1.5-4.5-3.3-1.3-0.5l0.7 0.3zm9.1 5.3c5 0-4.5-0.7 0 0zm-21.3-16.9c1.6 1.2 5.9 3.3 2.2 0.5 1.3-1.5-2.3-2.2-1.1-3.2-3.1-1.9-2.5-1.7-0.3-1.6-3.7-1.7 0.5-1.6 0.3-2.4-1.4-0.3-7-2.5-3.7 0.2-3.4-1.7-0.8 0.6-1.8 0.4-3.5-1 3 2.6-0.6 1.7 2 1.6 5.3 4 0.9 1.7-0.6 0.8 3.2 2.1 4.1 2.7zm29.8 21.6c0.1-1.7-1.7 1.3 0 0zm-21.5-13.2c-0.3-0.9-1.5-0.1 0 0zm-8-5.8c2.9-0.2-3.9-1.3 0 0zm-9.5-6.2c-0.4-1.3-3.2-2.4 0 0zm25 15.9c-0.5-0.6-0.3 0.1 0 0zm15.6 9.6c-0.1-0.9-0.9 0.3 0 0zm-17-11c0.3-1.2-2.4-0.4 0 0zm-11.6-7.4c2.1-0.2-3.4-1.4 0 0zm19.6 12.2c3.4-1.3-3.2-0.6 0 0zm-10.2-6.9c3.9 0.5-4.5-2.6-0.8-0.3zm-22.9-8.8c0.2-0.6 0.8 1.5 0 0zm31.6 4c-1.4-1.4-1.7-4.1-0.3-1.8 0.8 0.3 2.5 4.4 0.3 1.8zm15 9.5c0.8 0 0 0.7 0 0zm-17.2-13c0-2.2 0.5 1.7 0 0zm-1.5-2c-1.7-3.3 2.2 0.9 0 0zm-25.7-10.3c2.4 0.5 9.6 5.8 5.4 0.3-2.2-0.6-0.9-5.9-3.1-5 1.5 2.5 1.2 3.6-1.9 2-3.9-1.9-2.2 0.9-1.4 1.7-1.1 0.3 1.3 0.9 1 1zm22 5.6c0.7-2.3 0.8 2 0 0zm-10.1-7c-0.7-1.3 1.5 1.2 0 0zm8.7 2.8c-1.6-3.7 1.2-2 0.4 0.6zm-15-10.1c-0.8-1.2-2-4.7-1.6-5.7 0.4 1.7 3.7 7.5 1.7 2.3-2.3-4.3 2.7 1.4 3.2 2.5 0.2 1.1-1.4-0.3-0.3 2.2-2-2.8-1.2 1.6-3-1.3zm-4.7-3.2c0.2-2.7 1.1 1.9 0 0zm2.1 0.8c1-2.2 1.7 2.9 0 0zm-5-3.9c-1.8-1.8-3-3.3 0-1.1 1.2 0-2.6-3.6 0.3-1.2 3.1 0.6 1.5 5-0.3 2.3zm2.6-0.1c1-1 0.5 1 0 0zm1.6 0.5c-1.5-2.8 1.9 1.2 0 0zm-3.2-3.1c-5-4.4 6.3 2.4 0.8 0.9zm14.4 8.3c-2.2-1.3-0.6-9.1 0.2-3.8 2.1-0.6-0.1 2.8 1.4 2.8-0.2 2.2-0.9 3-1.6 1zm5.3 3.2c0.3-2.4 0.5 1.6 0 0zm-0.9-0.9c0.3-1 0 1.2 0 0zm-17.8-12.1c-3.2-4.5 9.4 4.5 2.1 1.1-0.8-0.2-1.7-0.3-2.1-1.1zm10.3 5.4c-0.3-3.7 0.6 0.6 0 0zm7.7 5c0.6-2.1 0.1 1.4 0 0zm-17.5-12.1c1.9-0.4 8 3.4 2.4 1.1-0.6-0.7-1.9-0.4-2.4-1.1zm16.5 8.2c0.2-3.8 1.1-2.3 0 0.6zm-15.1-9.6c0.8-1.1-2-5.2 0.4-1.4 1.1 0.8 3.2 1.4 1.4 1.7 2.8 2.5-0.7 0.7-1.8-0.3zm14.3 8.4c0.5-4.4 0.4 2.5 0 0zm-15.9-12.4c0.6-0.3 0.3 0.8 0 0zm3.7 2.2c1-2 1.8 2.2 0 0zm10.5 5.8c0-0.8 0.2 1.1 0 0zm-0.6-1.3c-1.5-3.6 1.3 1.9 0 0zm-0.9-2.4c-0.3-1.5 0.8 1.9 0 0zm1.4-2.3c-1-1.8 1.3-7.8 1.6-4.1-1.1 2.9-0.3 4.5 0.4 0.7 1.3-3.1-0.3 6-2 3.4zm-31.7-3c-0.4-2.5-0.3-6.8 3.8-5.3-5.5 1.1 3.8 6.8 2.6 2.3 2.4 0.1 4.6-1.4 3.4 0.8 4.5-0.5 7.7-4.4 12.1-3.9 3.4-0.4 7.2-0.8 10.9-2.1 3-0.3 6-3.5 4.3-5.5-4.1-0.3-8.5 0.2-13.1 1.1-5 1.1-9.7 3.1-14.8 3.9-5 0.7 1 1.9-0.4 2.1-2.6 0.9 3.1 1.6-0.4 2.5-2.1-0.4-4.3-1.1-3.4-3.4-4.8 0.6-9 2.6-5.2 7.5zm31 42.1c6.6 2.1-3.2-2.6 0 0zm4.8 3.7c2.9 0.7 2.9-0.5 0.3-0.8-1.4-1.3-5.8-2.7-1.9-0.2 0.3 0.7 1.1 0.6 1.6 1zm-10.3-3.6c-0.2-1-1.2 0 0 0zm5.2 1c-0.6-0.6 0.1 0.3 0 0zm27.8 15.6c0.1-1.3-0.9 1.1 0 0zm2.9 1.2c1.5-1.5 0 2.3 2.5-0.4 0-1.9-0.1-3.1-2.8-0.7-0.8 0.4-1.1 2.2 0.3 1.1zm-44.9-28.2c-0.5-1.8-3.2-1.8 0 0zm3 2c-1.1-1.9-4-1.7 0 0zm17.2 10.3c1.7 1.5 7.7 1.1 2 0.2-0.8-1.2-5.3-0.9-2-0.2zm23.6 14.6c2.6-2.2-2.5 1 0 0zm5.4 3.7c0-0.7-1.2 0.3 0 0zm0-1c2.8-3-2.8 0.2 0 0zm-56.6-35.8c-2.4-3.5-1.5-5.1-3.9-7.9-0.4-2.2-4-7.1-1.8-1.9 2 3.1 2.5 7.8 5.7 9.8zm55.7 34.8c5.2-3.4-2.2-1.4 0 0zm4 1.6c2.6-2.2-1.7-0.5 0 0zm-53.2-34.1c0.8-1.1-1.9-0.1 0 0zm52.3 33c2.6-1.6-0.5-1.4-0.4 0.2zm-34.6-21.8c-0.1-1.1-1.3 0.1 0 0zm2.1 1.2c-0.6-1.3-1 0.2 0 0zm36.6 21.7c3.2-2.4-2-0.4-0.7 0.5zm-1.3-0.6c2.7-2.3-2.8 0.9 0 0zm6.4 4.2c1.8-1.2-2.1-0.4 0 0zm-52.2-40.7c1-0.3 0.5 1.7 0 0zm-18.6-6.5c0.4-1.7-3.9-9.7-2.1-4 0.7 1.2 0.7 3.5 2.1 4zm20 12.4c-1.2-1.1 0-0.2 0 0zm3.1 0.7c0-1.9-3.4-0.8 0 0zm26.3 16.5c-0.5-1.2-2 0 0 0zm1.2 1c-0.2-0.7-0.7 0.1 0 0zm10.4 6.5c1-0.7-1.2-0.1 0 0zm-55.5-35.7c2.8-1.1-3.1-0.8 0 0zm41.5 26.2c0-1.8-1.8 0.5 0 0zm-42.7-28.8c1.9-0.6-1.7-0.4 0 0zm5.4 2.6c-0.1-0.6-0.6 0.2 0 0zm65.2 40c2.4-0.5 7.8 1.2 8.6-0.7-2.9 0-9.9-2-10.3 0.5l0.7 0.1zm-63.5-39.6c0-1.8-1.5 0 0 0zm-14.1-9.7c-0.6-3.6-2.4-0.6 0 0zm3.4 0.8c0-1.1-3.1-1 0 0zm1.9 1c-0.6-0.5-0.5 0.5 0 0zm12 7.7c0.6-0.5-1.3-0.4 0 0zm-13.3-9.9c-0.3-2.7-3.9-0.4 0 0zm-6.9-4.4c-0.1-1.3-0.6 0.5 0 0zm1-0.8c-0.1-1.5-0.8 0.2 0 0zm5.7 3.4c2.4-1-4.4-2-0.5-0.2zm75.6 46.7c1.5-1.4-1.9-0.4 0 0zm9.1 4.7c0.6-1.8-1.5 0.3 0 0zm-84.1-54.4c0.2-1.7-1.9 0.4 0 0zm25.1-11.3c0.5-0.5 0.1 0.6 0 0zm-21.6 0.1c1.1-4.2 6 3.4 1.8 0.5-0.5-0.4-1.3-0.7-1.8-0.5zm0.2-2c1.6-1.2 0.9 0.6 0 0zm2.1 0c0.1-1.9 4.7 1 0.7 0.7zm2.8-1.2c1-1.2 0.3 1.1 0 0zm0.7-0.4c1.7-2.1 9.7-1.3 3.9-0.2-1.6-1.2-2.8 0.7-3.9 0.2zm10.5-1.6c-0.3-5.7 5.1 2 0 0zm2.9-0.1c1.1-2.8 4.2-1.1 0.5-0.5 0.1 0.3-0.1 1.4-0.5 0.5zm-23.8 15.1c3.2-2-3.5-1.8 0 0zm2.4 0.6c1.1-1.2-2.5-0.5 0 0zm-7.1-5c1.9-1.4-2.2-0.5 0 0zm95.4 59.7c0-1.7-1.5 0.7 0 0zm-9.7-6.6c0.2-1.9-1.3 0.1 0 0zm12.3 7.2c2.6 0 7.8-0.8 2.2-0.8-0.9 0.2-5.1 0.1-2.2 0.8zm-88.9-56.4c2.1-0.2 3.3-2.3-0.4-2.2-5.6-0.6 5.1 1.9-0.7 1.2-0.8 0.5 1.1 1.1 1.2 1zm1.8 0.9c-0.2-1.3-0.7 0.7 0 0zm2.2-5.8c0.9-1.1-1.3-0.3 0 0zm-7-11.6c3.8-1.3 8.8-2.7 10.6 0.6-1.8-2.2-0.7-4.3 1-1.1 2.4 3.2 3.6-1.5 2-2.5 1.8 2.2 3.8 3.2 1.2 0.1 2.8-3.4-5.7 0.4-7.6 0.4-0.9 0.4-9.6 2.2-7.2 2.5zm2.2-4.2c2.1-1.6 7.4 1 4-1.6-0.3-0.3-7.3 1.9-4 1.6zm7.8 0.3c2.5 0.1-1.1-3.3 1.9-1.8-0.5-1.6-3.5-1.9-4.9-2.5-0.9 1.4 1.6 4.3 3 4.3zm-6.4-7c0.8-1.2-1.5 0.6 0 0zm3.1 0.7c4-0.5-1-1.7-0.8 0zm-5.9-4.6c-2.8-3.7 5.3 0.6 2.5-3.3-2.5-1.9-4.8 2.2-2.5 3.3zm36.2 19.5c1.3-2.3-5.3-3.1-0.8-0.8 0.4 0.1 0.3 0.9 0.8 0.8z"/>
</svg>