<svg version="1.2" xmlns="http://www.w3.org/2000/svg" viewBox="0 0 128 128" width="128" height="128">
	<title>html5-original</title>
	<style>
		.s0 { fill: #4e1aa2 } 
		.s1 { fill: #6100ff } 
		.s2 { fill: #212529 } 
	</style>
	<path class="s0" d="m19 113.9l-10-112.2h110l-10 112.2-45.1 12.4z"/>
	<path class="s1" d="m64 116.8l36.4-10.1 8.5-95.9h-44.9z"/>
	<path class="s2" d="m64 52.5h-18.2l-1.3-14.1h19.5v-13.8h-34.5l0.3 3.7 3.4 37.9h30.8zm0 35.8h-0.1l-15.3-4.2-1-10.9h-13.8l1.9 21.6 28.2 7.8h0.1z"/>
	<path class="s2" d="m64 52.5v13.7h16.9l-1.6 17.9-15.3 4.1v14.3l28.2-7.8 0.2-2.3 3.2-36.2 0.3-3.7h-3.7zm0-27.9v13.8h33.3l0.3-3.1 0.6-7 0.3-3.7z"/>
</svg>