<svg version="1.2" xmlns="http://www.w3.org/2000/svg" viewBox="0 0 128 128" width="128" height="128">
	<title>javascript-original</title>
	<style>
		.s0 { fill: #6100ff } 
		.s1 { fill: #212529 } 
	</style>
	<path class="s0" d="m1.4 1.4h125.2v125.2h-125.2z"/>
	<path class="s1" d="m116.3 96.7c-0.9-5.7-4.6-10.5-15.6-14.9-3.9-1.8-8.1-3.1-9.4-6-0.5-1.7-0.5-2.6-0.2-3.6 0.8-3.4 4.8-4.4 7.9-3.4 2 0.6 3.9 2.2 5.1 4.7 5.4-3.5 5.4-3.5 9.2-5.9-1.4-2.1-2.2-3.1-3.1-4-3.2-3.7-7.6-5.5-14.7-5.4l-3.7 0.5c-3.5 0.9-6.9 2.7-8.9 5.2-5.9 6.7-4.2 18.5 3 23.4 7.1 5.3 17.5 6.5 18.9 11.5 1.3 6.1-4.5 8.1-10.3 7.4-4.2-0.9-6.6-3.1-9.1-7-4.7 2.7-4.7 2.7-9.5 5.5 1.1 2.5 2.3 3.6 4.2 5.8 9.1 9.2 31.8 8.7 35.9-5.2 0.1-0.5 1.2-3.6 0.3-8.6zm-46.8-37.8h-11.7l-0.1 30.3c0 6.5 0.3 12.4-0.7 14.2-1.7 3.5-6.2 3.1-8.2 2.4-2-1-3.1-2.5-4.3-4.5-0.3-0.6-0.6-1-0.7-1.1l-9.5 5.9c1.6 3.2 3.9 6 6.9 7.9 4.5 2.6 10.5 3.5 16.7 2 4.1-1.2 7.6-3.6 9.5-7.4 2.7-4.9 2.1-10.8 2.1-17.4 0-10.8 0-21.5 0-32.3z"/>
</svg>