<svg version="1.2" xmlns="http://www.w3.org/2000/svg" viewBox="0 0 128 128" width="128" height="128">
	<title>nodejs-original</title>
	<defs>
		<linearGradient id="g1" x2="1" gradientUnits="userSpaceOnUse" gradientTransform="matrix(-45.499,92.24,-101.021,-49.83,84.229,22.373)">
			<stop offset="0" stop-color="#4e1aa2"/>
			<stop offset=".33" stop-color="#6100ff"/>
			<stop offset=".637" stop-color="#4e1aa3"/>
			<stop offset=".64" stop-color="#4e1aa2"/>
			<stop offset=".93" stop-color="#6100ff"/>
			<stop offset=".934" stop-color="#6002f9"/>
			<stop offset="1" stop-color="#4e1aa2"/>
		</linearGradient>
		<linearGradient id="g2" x2="1" gradientUnits="userSpaceOnUse" gradientTransform="matrix(126.946,-93.218,75.615,102.974,56.371,70.766)">
			<stop offset=".138" stop-color="#4e1aa2"/>
			<stop offset=".14" stop-color="#4e1aa2"/>
			<stop offset=".38" stop-color="#6100ff"/>
			<stop offset=".4" stop-color="#4e1aa2"/>
			<stop offset=".402" stop-color="#4e1aa3"/>
			<stop offset=".71" stop-color="#6100ff"/>
			<stop offset=".713" stop-color="#6100fe"/>
			<stop offset=".908" stop-color="#4e1aa3"/>
			<stop offset=".91" stop-color="#4e1aa2"/>
		</linearGradient>
		<linearGradient id="g3" x2="1" gradientUnits="userSpaceOnUse" gradientTransform="matrix(115.28,0,0,135.678,6.32,63.974)">
			<stop offset="0" stop-color="#4e1aa2"/>
			<stop offset=".33" stop-color="#6100ff"/>
			<stop offset=".637" stop-color="#4e1aa3"/>
			<stop offset=".64" stop-color="#4e1aa2"/>
			<stop offset=".93" stop-color="#6100ff"/>
			<stop offset=".934" stop-color="#6002f9"/>
			<stop offset="1" stop-color="#4e1aa2"/>
		</linearGradient>
	</defs>
	<style>
		.s0 { fill: url(#g1) } 
		.s1 { fill: url(#g2) } 
		.s2 { fill: url(#g3) } 
	</style>
	<path class="s0" d="m67 0.8q-0.7-0.4-1.5-0.6-0.8-0.2-1.6-0.2-0.8 0-1.5 0.2-0.8 0.2-1.5 0.6l-49.8 29c-1.9 1-3 3.1-3 5.2v58c0 2.1 1.2 4.2 3 5.2l49.8 29q0.7 0.4 1.5 0.6 0.7 0.2 1.5 0.2 0.8 0 1.6-0.2 0.8-0.2 1.5-0.6l49.8-29c1.9-1 2.9-3.1 2.9-5.2v-58c0-2.1-1.1-4.2-2.9-5.2z"/>
	<path class="s1" d="m116.9 29.8l-50.1-29q-0.1-0.1-0.3-0.2-0.2 0-0.4-0.1-0.2-0.1-0.4-0.2-0.2 0-0.4-0.1l-56.1 96.6q0.2 0.2 0.4 0.4 0.2 0.2 0.4 0.4 0.2 0.2 0.4 0.3 0.2 0.2 0.5 0.3l50 29c1.4 0.8 3.1 1 4.6 0.6l52.7-97q-0.1-0.1-0.3-0.3-0.1-0.1-0.3-0.3-0.2-0.1-0.3-0.2-0.2-0.1-0.4-0.2z"/>
	<path class="s2" d="m116.9 98.2c1.4-0.8 2.5-2.2 3-3.8l-54.8-94.3c-1.5-0.2-3-0.1-4.3 0.7l-49.7 28.8 53.6 98.4c0.7-0.1 1.6-0.4 2.3-0.7z"/>
</svg>