<svg version="1.2" xmlns="http://www.w3.org/2000/svg" viewBox="0 0 128 128" width="128" height="128">
	<title>python-original</title>
	<defs>
		<linearGradient id="g1" x2="1" gradientUnits="userSpaceOnUse" gradientTransform="matrix(56.529,49.068,-77.069,88.789,10.337,15.191)">
			<stop offset="0" stop-color="#6100ff"/>
			<stop offset="1" stop-color="#6100ff"/>
		</linearGradient>
		<linearGradient id="g2" x2="1" gradientUnits="userSpaceOnUse" gradientTransform="matrix(-20.186,-28.812,46.606,-32.652,88.719,93.952)">
			<stop offset="0" stop-color="#4e1aa2"/>
			<stop offset="1" stop-color="#4e1aa2"/>
		</linearGradient>
		<radialGradient id="g3" cx="0" cy="0" r="1" gradientUnits="userSpaceOnUse" gradientTransform="matrix(0,-6.418,6.418,0,64.084,119.413)">
			<stop offset="0" stop-color="#b8b8b8" stop-opacity=".5"/>
			<stop offset="1" stop-color="#7f7f7f" stop-opacity="0"/>
		</radialGradient>
	</defs>
	<style>
		.s0 { fill: url(#g1) } 
		.s1 { fill: url(#g2) } 
		.s2 { opacity: .44;fill: url(#g3) } 
	</style>
	<path class="s0" d="m63.4 12.2c-4.2 0.1-8.3 0.4-11.8 1.1-10.5 1.8-12.4 5.7-12.4 12.8v9.4h24.7v3.1h-33.9c-7.2 0-13.5 4.4-15.4 12.6-2.3 9.4-2.4 15.2 0 25.1 1.7 7.3 5.9 12.5 13.1 12.5h8.5v-11.3c0-8.2 7-15.3 15.4-15.3h24.7c6.8 0 12.3-5.7 12.3-12.6v-23.5c0-6.7-5.6-11.7-12.3-12.8-4.3-0.7-8.7-1.1-12.9-1.1zm-13.4 7.6c2.6 0 4.7 2.1 4.7 4.7 0 2.6-2.1 4.7-4.7 4.7-2.5 0-4.6-2.1-4.6-4.7 0-2.6 2.1-4.7 4.6-4.7z"/>
	<path class="s1" d="m91.7 38.6v11c0 8.5-7.2 15.7-15.4 15.7h-24.7c-6.8 0-12.4 5.7-12.4 12.5v23.5c0 6.7 5.9 10.7 12.4 12.6 7.8 2.3 15.3 2.7 24.7 0 6.2-1.8 12.3-5.5 12.3-12.6v-9.4h-24.7v-3.1h37c7.2 0 9.9-5 12.4-12.5 2.6-7.8 2.5-15.2 0-25.1-1.8-7.2-5.2-12.6-12.4-12.6 0 0-9.2 0-9.2 0zm-13.9 59.6c2.6 0 4.6 2.1 4.6 4.7 0 2.6-2 4.7-4.6 4.7-2.5 0-4.6-2.1-4.6-4.7 0-2.6 2.1-4.7 4.6-4.7z"/>
	<path class="s2" d="m97.3 119.6c0 3.5-14.8 6.4-33.1 6.4-18.3 0-33.1-2.9-33.1-6.4 0-3.5 14.8-6.4 33.1-6.4 18.3 0 33.1 2.9 33.1 6.4z"/>
</svg>